{"glyphs":{"\r":{"ha":0,"x_min":0,"x_max":0,"o":""},"\u0000":{"ha":0,"x_min":0,"x_max":0,"o":""}," ":{"ha":268,"x_min":0,"x_max":0,"o":""},"Ą":{"ha":859,"x_min":-44,"x_max":849,"o":"m 825 -149 q 836 -157 834 -149 l 849 -201 q 797 -227 828 -217 q 733 -237 766 -237 q 651 -213 680 -237 q 623 -149 623 -189 q 653 -67 623 -105 q 728 0 683 -28 l 719 0 q 692 9 702 0 q 679 31 683 17 l 625 274 l 219 274 l 106 31 q 86 9 99 19 q 58 0 74 0 l -44 0 l 444 995 l 576 995 l 819 0 l 804 0 q 774 -20 790 -8 q 745 -46 758 -31 q 724 -78 732 -60 q 715 -116 715 -96 q 729 -152 715 -138 q 765 -165 743 -165 q 790 -163 780 -165 q 807 -157 800 -160 q 818 -151 814 -154 q 825 -149 822 -149 m 263 369 l 604 369 l 513 781 q 503 822 508 799 q 495 871 499 844 q 475 821 485 844 q 456 780 465 798 l 263 369 z "},"ą":{"ha":703,"x_min":33,"x_max":651,"o":"m 576 -149 q 588 -157 585 -149 l 600 -201 q 548 -227 579 -217 q 484 -237 517 -237 q 403 -213 431 -237 q 374 -149 374 -189 q 383 -105 374 -126 q 406 -65 391 -84 q 440 -28 420 -45 q 484 3 460 -11 q 466 18 471 8 q 461 43 461 29 l 474 185 q 420 105 449 141 q 359 43 391 69 q 291 4 326 18 q 217 -10 256 -10 q 142 7 176 -10 q 84 55 108 23 q 47 132 60 86 q 33 238 33 178 q 49 360 33 301 q 93 472 65 419 q 163 569 122 525 q 252 645 203 613 q 359 695 302 678 q 478 713 416 713 q 566 706 524 713 q 651 681 609 699 l 567 0 l 556 0 q 525 -20 541 -8 q 497 -46 510 -31 q 475 -78 483 -60 q 467 -116 467 -96 q 481 -152 467 -138 q 517 -165 494 -165 q 541 -163 531 -165 q 558 -157 551 -160 q 569 -151 565 -154 q 576 -149 573 -149 m 264 93 q 331 114 298 93 q 392 173 363 135 q 447 262 422 210 q 492 376 472 314 l 522 617 q 491 622 506 621 q 462 623 476 623 q 381 609 420 623 q 308 572 342 596 q 247 514 274 547 q 199 440 219 480 q 168 354 179 399 q 157 260 157 308 q 264 93 157 93 z "},"Ć":{"ha":874,"x_min":69,"x_max":883,"o":"m 472 101 q 553 108 517 101 q 615 127 588 116 q 661 152 642 138 q 695 176 681 165 q 719 195 709 188 q 736 203 728 203 q 747 200 742 203 q 753 194 751 198 l 799 138 q 648 28 733 67 q 450 -11 563 -11 q 290 21 361 -11 q 170 110 219 53 q 95 247 122 167 q 69 421 69 326 q 110 658 69 551 q 220 843 150 766 q 386 964 291 921 q 591 1006 481 1006 q 687 997 644 1006 q 765 971 730 988 q 830 929 801 953 q 883 875 858 905 l 839 821 q 826 809 833 814 q 809 805 819 805 q 783 819 797 805 q 745 849 769 833 q 683 879 721 865 q 585 893 645 893 q 434 861 504 893 q 313 768 364 828 q 232 623 261 708 q 202 431 202 538 q 222 293 202 354 q 278 189 242 232 q 363 124 314 147 q 472 101 413 101 m 846 1237 l 646 1091 q 625 1078 634 1083 q 603 1074 617 1074 l 502 1074 l 653 1215 q 666 1225 660 1221 q 678 1232 672 1230 q 692 1236 685 1235 q 711 1237 700 1237 l 846 1237 z "},"ć":{"ha":601,"x_min":42,"x_max":610,"o":"m 569 126 q 500 60 533 87 q 435 18 468 34 q 368 -3 403 3 q 292 -10 333 -10 q 184 11 231 -10 q 106 70 138 32 q 58 161 74 108 q 42 278 42 214 q 68 442 42 363 q 143 581 95 520 q 257 677 191 641 q 402 713 323 713 q 519 689 472 713 q 601 617 566 664 l 563 570 q 552 561 558 565 q 538 558 546 558 q 519 566 528 558 q 495 586 510 575 q 457 605 480 597 q 399 614 435 614 q 309 588 351 614 q 234 517 266 562 q 184 410 202 472 q 165 277 165 348 q 175 199 165 234 q 204 139 185 164 q 252 101 224 115 q 317 88 280 88 q 373 94 349 88 q 416 110 397 101 q 449 132 435 120 q 475 153 463 143 q 495 169 486 163 q 515 176 505 176 q 538 164 528 176 l 569 126 l 569 126 m 610 1006 l 438 828 q 418 813 428 817 q 394 809 408 809 l 324 809 l 439 977 q 460 999 449 992 q 494 1006 472 1006 l 610 1006 z "},"Ę":{"ha":741,"x_min":67,"x_max":756,"o":"m 583 -149 q 594 -157 592 -149 l 606 -201 q 555 -227 585 -217 q 490 -237 524 -237 q 409 -213 438 -237 q 381 -149 381 -189 q 410 -67 381 -105 q 486 0 440 -28 l 67 0 l 190 995 l 756 995 l 743 889 l 308 889 l 266 553 l 619 553 l 606 451 l 253 451 l 211 106 l 648 106 l 635 0 l 562 0 q 532 -20 547 -8 q 503 -46 516 -31 q 481 -78 490 -60 q 473 -116 473 -96 q 487 -152 473 -138 q 523 -165 501 -165 q 548 -163 538 -165 q 565 -157 558 -160 q 575 -151 572 -154 q 583 -149 579 -149 z "},"ę":{"ha":640,"x_min":41,"x_max":612,"o":"m 406 -149 q 417 -157 415 -149 l 430 -201 q 378 -227 409 -217 q 314 -237 347 -237 q 233 -213 261 -237 q 204 -149 204 -189 q 230 -73 204 -108 q 294 -10 255 -37 q 189 12 235 -9 q 109 69 142 33 q 58 159 76 106 q 41 276 41 211 q 52 384 41 330 q 86 486 64 438 q 139 576 108 535 q 211 648 171 618 q 301 696 252 678 q 406 713 350 713 q 499 698 460 713 q 563 659 538 683 q 600 607 588 635 q 612 553 612 578 q 593 468 612 507 q 524 399 574 430 q 387 345 474 368 q 162 308 299 322 q 161 293 161 301 q 161 278 161 286 q 202 136 161 185 q 324 88 242 88 q 384 94 358 88 q 430 111 410 101 q 466 134 451 122 q 495 156 482 146 q 519 173 508 166 q 542 180 531 180 q 565 168 554 180 l 595 130 q 491 42 542 74 q 382 -2 440 10 q 352 -22 367 -10 q 325 -48 338 -33 q 305 -79 313 -62 q 297 -116 297 -97 q 310 -152 297 -138 q 347 -165 324 -165 q 371 -163 361 -165 q 388 -157 381 -160 q 399 -151 395 -154 q 406 -149 403 -149 m 399 624 q 319 606 356 624 q 253 557 282 588 q 205 482 225 525 q 174 390 185 440 q 345 420 281 403 q 444 457 410 438 q 490 500 479 477 q 501 548 501 523 q 496 574 501 560 q 478 599 490 588 q 447 617 466 610 q 399 624 427 624 z "},"Ł":{"ha":695,"x_min":19,"x_max":642,"o":"m 303 560 l 557 692 l 547 606 q 526 576 544 586 l 290 451 l 248 110 l 642 110 l 628 0 l 105 0 l 153 387 l 19 320 l 31 409 q 50 436 33 427 l 166 497 l 228 995 l 358 995 l 303 560 z "},"ł":{"ha":417,"x_min":53,"x_max":424,"o":"m 53 504 q 70 532 53 524 l 176 579 l 231 1023 l 352 1023 l 303 626 l 424 678 l 424 607 q 405 576 424 584 l 292 526 l 228 0 l 106 0 l 165 479 l 53 431 l 53 504 z "},"Ń":{"ha":966,"x_min":67,"x_max":937,"o":"m 257 995 q 282 991 274 995 q 299 973 290 987 l 728 213 q 731 243 729 228 q 733 270 732 257 l 822 995 l 937 995 l 815 0 l 749 0 q 723 5 733 0 q 705 24 713 10 l 276 785 q 276 776 276 782 q 275 763 276 769 q 274 748 274 756 q 272 736 273 741 l 182 0 l 67 0 l 190 995 l 257 995 l 257 995 m 822 1237 l 622 1091 q 602 1078 610 1083 q 579 1074 593 1074 l 478 1074 l 630 1215 q 643 1225 637 1221 q 655 1232 649 1230 q 669 1236 661 1235 q 688 1237 676 1237 l 822 1237 z "},"ń":{"ha":731,"x_min":49,"x_max":665,"o":"m 49 0 l 133 704 l 195 704 q 237 663 237 704 l 226 526 q 353 667 283 619 q 499 714 424 714 q 621 661 578 714 q 665 507 665 608 q 664 478 665 493 q 661 448 663 464 l 608 0 l 485 0 l 538 448 q 540 475 539 462 q 541 499 541 488 q 520 584 541 556 q 453 611 499 611 q 386 593 420 611 q 319 542 351 575 q 260 462 288 509 q 213 358 233 415 l 173 0 l 49 0 m 648 1006 l 476 828 q 456 813 466 817 q 432 809 446 809 l 361 809 l 476 977 q 498 999 486 992 q 531 1006 510 1006 l 648 1006 z "},"Ś":{"ha":678,"x_min":8,"x_max":714,"o":"m 643 841 q 628 826 635 831 q 612 821 622 821 q 587 833 600 821 q 553 859 574 845 q 503 886 533 874 q 431 898 474 898 q 351 884 386 898 q 293 846 317 870 q 256 790 269 822 q 244 722 244 758 q 260 661 244 685 q 304 618 277 636 q 366 587 331 601 q 438 559 401 574 q 509 528 474 545 q 571 485 544 510 q 615 423 598 459 q 631 335 631 387 q 607 202 631 265 q 537 92 583 139 q 427 17 492 44 q 282 -11 363 -11 q 123 24 193 -11 q 8 119 53 59 l 54 181 q 68 193 60 188 q 86 198 76 198 q 115 182 99 198 q 153 148 130 167 q 212 113 177 128 q 299 97 247 97 q 385 113 347 97 q 450 155 424 128 q 492 220 477 182 q 506 303 506 258 q 490 367 506 342 q 446 410 473 392 q 384 440 419 427 q 314 466 350 453 q 243 496 277 479 q 181 538 208 513 q 138 601 154 564 q 121 694 121 639 q 143 811 121 755 q 207 910 165 867 q 308 979 249 953 q 443 1005 368 1005 q 581 976 519 1005 q 681 896 642 947 l 643 841 m 714 1237 l 514 1091 q 493 1078 502 1083 q 471 1074 485 1074 l 370 1074 l 522 1215 q 534 1225 528 1221 q 547 1232 540 1230 q 560 1236 553 1235 q 579 1237 568 1237 l 714 1237 z "},"ś":{"ha":540,"x_min":7,"x_max":558,"o":"m 502 591 q 491 579 497 583 q 477 575 485 575 q 456 583 467 575 q 428 600 444 590 q 388 617 412 609 q 331 625 365 625 q 274 616 300 625 q 230 592 249 608 q 201 557 211 577 q 191 513 191 536 q 213 461 191 481 q 267 427 234 442 q 337 400 299 413 q 408 367 375 387 q 462 315 440 347 q 483 234 483 284 q 464 141 483 185 q 409 63 445 97 q 323 9 374 29 q 210 -11 273 -11 q 91 13 143 -11 q 7 74 40 37 l 38 122 q 51 135 43 131 q 70 140 58 140 q 92 131 81 140 q 120 109 103 121 q 162 87 137 97 q 226 77 188 77 q 288 88 260 77 q 334 115 315 98 q 364 156 353 133 q 374 206 374 179 q 352 262 374 241 q 298 297 331 283 q 228 323 265 310 q 158 354 190 335 q 103 403 125 373 q 82 485 82 434 q 100 570 82 529 q 151 644 117 612 q 232 695 184 676 q 339 714 279 714 q 450 693 402 714 q 533 635 499 672 l 502 591 m 558 1006 l 385 828 q 366 813 376 817 q 342 809 356 809 l 271 809 l 386 977 q 408 999 396 992 q 441 1006 419 1006 l 558 1006 z "},"Š":{"ha":678,"x_min":8,"x_max":688,"o":"m 643 841 q 628 826 635 831 q 612 821 622 821 q 587 833 600 821 q 553 859 574 845 q 503 886 533 874 q 431 898 474 898 q 351 884 386 898 q 293 846 317 870 q 256 790 269 822 q 244 722 244 758 q 260 661 244 685 q 304 618 277 636 q 366 587 331 601 q 438 559 401 574 q 509 528 474 545 q 571 485 544 510 q 615 423 598 459 q 631 335 631 387 q 607 202 631 265 q 537 92 583 139 q 427 17 492 44 q 282 -11 363 -11 q 123 24 193 -11 q 8 119 53 59 l 54 181 q 68 193 60 188 q 86 198 76 198 q 115 182 99 198 q 153 148 130 167 q 212 113 177 128 q 299 97 247 97 q 385 113 347 97 q 450 155 424 128 q 492 220 477 182 q 506 303 506 258 q 490 367 506 342 q 446 410 473 392 q 384 440 419 427 q 314 466 350 453 q 243 496 277 479 q 181 538 208 513 q 138 601 154 564 q 121 694 121 639 q 143 811 121 755 q 207 910 165 867 q 308 979 249 953 q 443 1005 368 1005 q 581 976 519 1005 q 681 896 642 947 l 643 841 m 688 1219 l 517 1074 l 399 1074 l 265 1219 l 356 1219 q 372 1217 363 1219 q 386 1210 381 1215 l 465 1135 l 564 1210 q 580 1217 570 1215 q 597 1219 589 1219 l 688 1219 z "},"š":{"ha":540,"x_min":7,"x_max":564,"o":"m 502 591 q 491 579 497 583 q 477 575 485 575 q 456 583 467 575 q 428 600 444 590 q 388 617 412 609 q 331 625 365 625 q 274 616 300 625 q 230 592 249 608 q 201 557 211 577 q 191 513 191 536 q 213 461 191 481 q 267 427 234 442 q 337 400 299 413 q 408 367 375 387 q 462 315 440 347 q 483 234 483 284 q 464 141 483 185 q 409 63 445 97 q 323 9 374 29 q 210 -11 273 -11 q 91 13 143 -11 q 7 74 40 37 l 38 122 q 51 135 43 131 q 70 140 58 140 q 92 131 81 140 q 120 109 103 121 q 162 87 137 97 q 226 77 188 77 q 288 88 260 77 q 334 115 315 98 q 364 156 353 133 q 374 206 374 179 q 352 262 374 241 q 298 297 331 283 q 228 323 265 310 q 158 354 190 335 q 103 403 125 373 q 82 485 82 434 q 100 570 82 529 q 151 644 117 612 q 232 695 184 676 q 339 714 279 714 q 450 693 402 714 q 533 635 499 672 l 502 591 m 166 995 l 249 995 q 264 992 257 995 q 274 985 270 990 l 343 896 l 352 883 l 365 896 l 456 985 q 469 992 461 990 q 484 995 476 995 l 564 995 l 398 813 l 288 813 l 166 995 z "},"Ÿ":{"ha":809,"x_min":84,"x_max":885,"o":"m 476 398 l 427 0 l 297 0 l 347 397 l 84 995 l 199 995 q 226 986 217 995 q 240 965 235 978 l 406 566 q 417 528 413 546 q 426 492 422 510 q 444 528 434 510 q 466 566 454 546 l 731 965 q 750 985 738 976 q 778 995 761 995 l 885 995 l 476 398 m 453 1156 q 447 1129 453 1142 q 431 1107 441 1117 q 409 1093 422 1098 q 381 1088 396 1088 q 355 1093 367 1088 q 333 1107 343 1098 q 318 1129 324 1117 q 313 1156 313 1142 q 318 1183 313 1170 q 333 1206 324 1196 q 355 1222 343 1216 q 381 1227 367 1227 q 409 1222 396 1227 q 431 1206 422 1216 q 447 1183 441 1196 q 453 1156 453 1170 m 692 1156 q 686 1129 692 1142 q 671 1107 681 1117 q 649 1093 661 1098 q 622 1088 636 1088 q 594 1093 607 1088 q 572 1107 582 1098 q 557 1129 563 1117 q 551 1156 551 1142 q 557 1183 551 1170 q 572 1206 563 1196 q 594 1222 582 1216 q 622 1227 607 1227 q 649 1222 636 1227 q 671 1206 661 1216 q 686 1183 681 1196 q 692 1156 692 1170 z "},"Ź":{"ha":797,"x_min":11,"x_max":830,"o":"m 830 995 l 824 953 q 819 936 823 944 q 808 919 815 928 l 200 106 l 713 106 l 699 0 l 11 0 l 17 41 q 22 58 18 51 q 32 74 26 66 l 640 889 l 145 889 l 158 995 l 830 995 m 754 1237 l 554 1091 q 534 1078 542 1083 q 511 1074 525 1074 l 410 1074 l 562 1215 q 575 1225 569 1221 q 587 1232 581 1230 q 601 1236 593 1235 q 619 1237 608 1237 l 754 1237 z "},"ź":{"ha":596,"x_min":2,"x_max":595,"o":"m 589 651 q 581 625 588 638 q 567 603 575 613 l 162 97 l 509 97 l 498 0 l 2 0 l 8 51 q 16 73 10 60 q 30 96 22 85 l 438 606 l 96 606 l 108 703 l 595 703 l 589 651 m 574 1006 l 401 828 q 382 813 392 817 q 358 809 372 809 l 287 809 l 402 977 q 424 999 412 992 q 457 1006 435 1006 l 574 1006 z "},"Ż":{"ha":797,"x_min":11,"x_max":830,"o":"m 830 995 l 824 953 q 819 936 823 944 q 808 919 815 928 l 200 106 l 713 106 l 699 0 l 11 0 l 17 41 q 22 58 18 51 q 32 74 26 66 l 640 889 l 145 889 l 158 995 l 830 995 m 593 1172 q 586 1140 593 1156 q 567 1114 579 1125 q 540 1095 556 1102 q 507 1088 524 1088 q 475 1095 490 1088 q 448 1114 460 1102 q 430 1140 437 1125 q 424 1172 424 1156 q 430 1205 424 1190 q 448 1232 437 1220 q 475 1251 460 1244 q 507 1258 490 1258 q 540 1251 524 1258 q 567 1232 556 1244 q 586 1205 579 1220 q 593 1172 593 1190 z "},"ż":{"ha":596,"x_min":2,"x_max":595,"o":"m 589 651 q 581 625 588 638 q 567 603 575 613 l 162 97 l 509 97 l 498 0 l 2 0 l 8 51 q 16 73 10 60 q 30 96 22 85 l 438 606 l 96 606 l 108 703 l 595 703 l 589 651 m 471 931 q 464 897 471 913 q 444 869 456 881 q 416 851 432 858 q 382 844 400 844 q 348 851 364 844 q 321 869 333 858 q 302 897 309 881 q 295 931 295 913 q 302 965 295 949 q 321 993 309 981 q 348 1013 333 1006 q 382 1019 364 1019 q 416 1013 400 1019 q 444 993 432 1006 q 464 965 456 981 q 471 931 471 949 z "},"Ž":{"ha":797,"x_min":11,"x_max":830,"o":"m 830 995 l 824 953 q 819 936 823 944 q 808 919 815 928 l 200 106 l 713 106 l 699 0 l 11 0 l 17 41 q 22 58 18 51 q 32 74 26 66 l 640 889 l 145 889 l 158 995 l 830 995 m 731 1219 l 560 1074 l 443 1074 l 308 1219 l 399 1219 q 416 1217 407 1219 q 430 1210 424 1215 l 509 1135 l 608 1210 q 623 1217 614 1215 q 641 1219 633 1219 l 731 1219 z "},"ž":{"ha":596,"x_min":2,"x_max":595,"o":"m 589 651 q 581 625 588 638 q 567 603 575 613 l 162 97 l 509 97 l 498 0 l 2 0 l 8 51 q 16 73 10 60 q 30 96 22 85 l 438 606 l 96 606 l 108 703 l 595 703 l 589 651 m 182 995 l 265 995 q 280 992 273 995 q 290 985 286 990 l 359 896 l 368 883 l 381 896 l 472 985 q 485 992 477 990 q 500 995 492 995 l 580 995 l 414 813 l 303 813 l 182 995 z "},"ƒ":{"ha":806,"x_min":3,"x_max":784,"o":"m 490 535 l 365 24 q 240 -181 331 -117 q 3 -245 149 -245 l 11 -182 q 56 -144 16 -144 q 118 -134 88 -143 q 172 -105 147 -125 q 217 -52 197 -85 q 248 28 236 -19 l 371 531 l 263 542 q 244 550 251 543 q 238 567 238 557 q 239 583 238 574 q 242 601 240 592 q 244 622 243 610 l 393 622 l 422 740 q 544 943 456 876 q 784 1009 633 1009 l 776 943 q 763 916 774 924 q 731 908 752 908 q 669 899 699 908 q 614 869 640 890 q 569 816 589 849 q 537 735 549 783 l 507 622 l 734 622 l 723 535 l 490 535 z "},"†":{"ha":742,"x_min":106,"x_max":707,"o":"m 112 653 q 130 689 115 673 q 174 706 145 706 q 268 696 218 705 q 367 682 317 687 l 391 1007 q 455 1022 419 1022 q 515 1007 490 1022 l 459 682 q 510 688 484 684 q 561 696 536 692 q 611 702 587 699 q 658 706 635 706 q 695 691 684 706 q 707 659 707 677 q 707 657 707 658 q 707 651 707 656 q 705 638 706 647 q 703 613 704 628 l 451 613 l 413 304 l 363 -233 q 333 -245 349 -241 q 299 -249 316 -249 q 266 -245 281 -249 q 239 -233 251 -241 l 320 304 l 358 613 l 106 613 l 112 653 z "}}}
